<svg width="76" height="76" viewBox="0 0 76 76" fill="none" xmlns="http://www.w3.org/2000/svg">
<path opacity="0.22" d="M24.5189 57.6314C35.2601 57.6314 43.9676 48.9239 43.9676 38.1827C43.9676 27.4414 35.2601 18.7339 24.5189 18.7339C13.7776 18.7339 5.07013 27.4414 5.07013 38.1827C5.07013 48.9239 13.7776 57.6314 24.5189 57.6314Z" fill="#FE2C54"/>
<path d="M64.8714 42.3462H67.7527C68.3462 42.35 68.9142 42.5884 69.3325 43.0095C69.7509 43.4305 69.9857 44 69.9857 44.5936V64.4745C69.9819 65.0656 69.7454 65.6313 69.3275 66.0493C68.9095 66.4672 68.3438 66.7037 67.7527 66.7075H64.8714" stroke="#05060A" stroke-width="2" stroke-linecap="round" stroke-linejoin="round"/>
<path d="M58.9503 72.8446H24.735C23.9668 72.8446 23.2063 72.6933 22.4966 72.3994C21.787 72.1055 21.1422 71.6746 20.5991 71.1315C20.0559 70.5884 19.6251 69.9436 19.3312 69.2339C19.0372 68.5243 18.8859 67.7637 18.8859 66.9956V9.84515C18.8859 8.29389 19.5022 6.80617 20.5991 5.70926C21.696 4.61236 23.1837 3.99613 24.735 3.99613H58.9503C59.7239 3.98852 60.4914 4.13409 61.2085 4.42445C61.9256 4.7148 62.5782 5.1442 63.1286 5.6879C63.679 6.23161 64.1163 6.87886 64.4154 7.59235C64.7146 8.30585 64.8695 9.07149 64.8714 9.84515V66.9956C64.8695 67.7693 64.7146 68.5349 64.4154 69.2484C64.1163 69.9619 63.679 70.6091 63.1286 71.1528C62.5782 71.6965 61.9256 72.1259 61.2085 72.4163C60.4914 72.7067 59.7239 72.8522 58.9503 72.8446V72.8446Z" stroke="#05060A" stroke-width="2" stroke-linecap="round" stroke-linejoin="round"/>
<path d="M58.7342 42.0724H24.9655V59.4466H58.7342V42.0724Z" stroke="#05060A" stroke-width="2" stroke-linecap="round" stroke-linejoin="round"/>
<path d="M31.9814 47.8494H51.6607" stroke="#05060A" stroke-width="2" stroke-linecap="round" stroke-linejoin="round"/>
<path d="M48.5921 47.8494L47.0362 51.6383" stroke="#05060A" stroke-width="2" stroke-linecap="round" stroke-linejoin="round"/>
<path d="M41.8118 18.9046L37.1767 23.5396L41.8118 28.1747L46.4468 23.5396L41.8118 18.9046Z" stroke="#05060A" stroke-width="2" stroke-linecap="round" stroke-linejoin="round"/>
<path d="M29.2874 42.0724V2.1953" stroke="#05060A" stroke-width="2" stroke-linecap="round" stroke-linejoin="round"/>
<path d="M54.3547 42.0724V2.1953" stroke="#05060A" stroke-width="2" stroke-linecap="round" stroke-linejoin="round"/>
<path d="M36.1737 72.8446C36.2471 71.3868 36.8779 70.0129 37.9357 69.0071C38.9935 68.0012 40.3974 67.4403 41.8571 67.4403C43.3167 67.4403 44.7206 68.0012 45.7784 69.0071C46.8362 70.0129 47.467 71.3868 47.5404 72.8446" stroke="#05060A" stroke-width="2" stroke-linecap="round" stroke-linejoin="round"/>
<path d="M27.2129 32.8523H31.3475" stroke="#05060A" stroke-width="2" stroke-linecap="round" stroke-linejoin="round"/>
<path d="M52.2946 32.8523H56.4292" stroke="#05060A" stroke-width="2" stroke-linecap="round" stroke-linejoin="round"/>
<path d="M64.8426 51.6383H70.0001" stroke="#05060A" stroke-width="2" stroke-linecap="round" stroke-linejoin="round"/>
<path d="M18.886 42.3462H15.8894C15.2959 42.35 14.7279 42.5884 14.3096 43.0095C13.8912 43.4305 13.6564 44 13.6564 44.5936V64.4745C13.6602 65.0656 13.8967 65.6313 14.3146 66.0493C14.7326 66.4672 15.2984 66.7037 15.8894 66.7075H18.7707" stroke="#05060A" stroke-width="2" stroke-linecap="round" stroke-linejoin="round"/>
<path d="M18.8572 51.6383H13.6996" stroke="#05060A" stroke-width="2" stroke-linecap="round" stroke-linejoin="round"/>
<path d="M18.8859 12.6832H64.8137" stroke="#05060A" stroke-width="2" stroke-linecap="round" stroke-linejoin="round"/>
</svg>
