<svg width="76" height="76" viewBox="0 0 76 76" fill="none" xmlns="http://www.w3.org/2000/svg">
<path opacity="0.22" d="M38.1294 43.7375C48.8077 43.7375 57.4641 35.081 57.4641 24.4027C57.4641 13.7244 48.8077 5.0679 38.1294 5.0679C27.4511 5.0679 18.7946 13.7244 18.7946 24.4027C18.7946 35.081 27.4511 43.7375 38.1294 43.7375Z" fill="#FE2C54"/>
<path d="M16.0001 20C18.7615 20 21.0001 17.7614 21.0001 15C21.0001 12.2386 18.7615 10 16.0001 10C13.2387 10 11.0001 12.2386 11.0001 15C11.0001 17.7614 13.2387 20 16.0001 20Z" stroke="#05060A" stroke-width="2" stroke-linecap="round" stroke-linejoin="round"/>
<path d="M28.0001 14.4671C28.0001 22.1562 16.0069 34 16.0069 34C16.0069 34 4.00012 22.0985 4.00012 14.4671C4.00872 12.8036 4.32755 11.1585 4.93804 9.6278C5.54853 8.09706 6.43846 6.71128 7.55598 5.55119C8.6735 4.39111 9.99624 3.47993 11.4471 2.87076C12.898 2.26159 14.4481 1.9666 16.0069 2.003C17.5646 1.96854 19.1131 2.26496 20.5625 2.875C22.0118 3.48505 23.3329 4.39654 24.449 5.55643C25.5651 6.71632 26.4538 8.10144 27.0634 9.63121C27.6731 11.161 27.9915 12.8048 28.0001 14.4671V14.4671Z" stroke="#05060A" stroke-width="2" stroke-linecap="round" stroke-linejoin="round"/>
<path d="M60.0001 60C62.7615 60 65.0001 57.7614 65.0001 55C65.0001 52.2386 62.7615 50 60.0001 50C57.2387 50 55.0001 52.2386 55.0001 55C55.0001 57.7614 57.2387 60 60.0001 60Z" stroke="#05060A" stroke-width="2" stroke-linecap="round" stroke-linejoin="round"/>
<path d="M72.0001 54.6658C72.0001 62.2767 60.0001 74 60.0001 74C60.0001 74 48.0001 62.2767 48.0001 54.6658C48.0001 51.3066 49.2644 48.085 51.5148 45.7097C53.7653 43.3344 56.8175 42 60.0001 42C63.1827 42 66.235 43.3344 68.4854 45.7097C70.7358 48.085 72.0001 51.3066 72.0001 54.6658Z" stroke="#05060A" stroke-width="2" stroke-linecap="round" stroke-linejoin="round"/>
<path d="M34.9498 14.6494C72.044 2.91961 79.0045 22.6841 41.9104 34.4281L35.9094 36.8629C-5.09465 49.8244 2.09503 72.5535 43.0704 59.592" stroke="#05060A" stroke-width="2" stroke-linecap="round" stroke-linejoin="round" stroke-dasharray="5.38 5.38"/>
</svg>
