<svg width="148" height="40" viewBox="0 0 148 40" fill="none" xmlns="http://www.w3.org/2000/svg">
<path d="M39.999 23.0417C35.4251 20.8544 28.066 19.4616 21.3712 19.4616C17.2686 19.4616 14.7483 12.402 14.0458 7.77739L16.6986 3.29787C17.2933 2.29356 18.1414 1.46104 19.1589 0.882643C20.1764 0.304244 21.3281 0 22.5001 0C23.6721 0 24.8238 0.304244 25.8413 0.882643C26.8588 1.46104 27.7069 2.29356 28.3017 3.29787L39.999 23.0417ZM43.7538 29.3782L44.068 29.9049C44.6707 30.9221 44.9922 32.0797 45 33.2603C45.0077 34.441 44.7015 35.6027 44.1122 36.6276C43.523 37.6526 42.6717 38.5044 41.6446 39.0966C40.6176 39.6889 39.4514 40.0005 38.2642 40H6.73382C5.54681 40.0001 4.38087 39.6882 3.35416 39.0958C2.32744 38.5034 1.47647 37.6515 0.887472 36.6266C0.298477 35.6018 -0.0075979 34.4402 0.000270018 33.2598C0.00813793 32.0793 0.329669 30.9219 0.932274 29.9049L11.0698 12.7993C12.0057 18.9594 15.8816 23.9255 21.3712 23.9255C27.5364 23.9255 36.4306 25.1218 43.7538 29.3782Z" fill="#3E82FC"/>
<path d="M62.1521 8.144V16.208C62.1521 16.816 61.6721 17.264 61.0961 17.264H59.1441C58.5681 17.264 58.0881 16.816 58.0881 16.208V8.144C58.0881 7.92 57.8961 7.728 57.6721 7.728H55.3361C55.1121 7.728 54.9201 7.92 54.9201 8.144V29.584C54.9201 29.808 55.1121 30 55.3361 30H57.6721C57.8961 30 58.0881 29.808 58.0881 29.584V21.104C58.0881 20.496 58.5681 20.048 59.1441 20.048H61.0961C61.6721 20.048 62.1521 20.496 62.1521 21.104V29.584C62.1521 29.808 62.3441 30 62.5681 30H64.8721C65.1281 30 65.3201 29.808 65.3201 29.584V8.144C65.3201 7.92 65.1281 7.728 64.8721 7.728H62.5681C62.3441 7.728 62.1521 7.92 62.1521 8.144ZM69.1701 8.144V29.584C69.1701 29.808 69.3621 30 69.5861 30H71.9221C72.1461 30 72.3381 29.808 72.3381 29.584V8.144C72.3381 7.92 72.1461 7.728 71.9221 7.728H69.5861C69.3621 7.728 69.1701 7.92 69.1701 8.144ZM85.1934 17.968H81.5134C81.2894 17.968 81.0654 18.192 81.0654 18.416V20.272C81.0654 20.528 81.2894 20.752 81.5134 20.752H82.4094C82.7934 20.752 83.1134 21.04 83.1134 21.456V25.84C83.1134 26.608 82.4734 27.248 81.6734 27.248H80.4574C79.6894 27.248 79.0494 26.608 79.0494 25.84V11.888C79.0494 11.088 79.6894 10.448 80.4574 10.448H81.4814C82.2814 10.448 82.8894 11.088 82.8894 11.888V13.808C82.8894 14.128 83.1774 14.384 83.4974 14.384H85.4814C85.8014 14.384 86.0894 14.128 86.0894 13.808V11.632C86.0894 9.456 84.3294 7.728 82.1854 7.728H79.7854C77.6414 7.728 75.8814 9.456 75.8814 11.632V25.968C75.8814 28.208 77.6734 30 79.9134 30H82.2494C84.4574 30 86.2814 28.208 86.2814 25.968V19.056C86.2814 18.448 85.8014 17.968 85.1934 17.968ZM96.7771 8.144V16.208C96.7771 16.816 96.2971 17.264 95.7211 17.264H93.7691C93.1931 17.264 92.7131 16.816 92.7131 16.208V8.144C92.7131 7.92 92.5211 7.728 92.2971 7.728H89.9611C89.7371 7.728 89.5451 7.92 89.5451 8.144V29.584C89.5451 29.808 89.7371 30 89.9611 30H92.2971C92.5211 30 92.7131 29.808 92.7131 29.584V21.104C92.7131 20.496 93.1931 20.048 93.7691 20.048H95.7211C96.2971 20.048 96.7771 20.496 96.7771 21.104V29.584C96.7771 29.808 96.9691 30 97.1931 30H99.4971C99.7531 30 99.9451 29.808 99.9451 29.584V8.144C99.9451 7.92 99.7531 7.728 99.4971 7.728H97.1931C96.9691 7.728 96.7771 7.92 96.7771 8.144ZM113.875 29.584L109.459 16.88C109.427 16.72 109.427 16.528 109.459 16.368L113.491 8.144C113.555 7.92 113.427 7.728 113.203 7.728H110.867C110.643 7.728 110.387 7.92 110.323 8.144L106.963 14.928V8.144C106.963 7.92 106.771 7.728 106.547 7.728H104.211C103.987 7.728 103.795 7.92 103.795 8.144V29.584C103.795 29.808 103.987 30 104.211 30H106.547C106.771 30 106.963 29.808 106.963 29.584V21.328L107.539 20.144L110.707 29.584C110.771 29.808 111.027 30 111.251 30H113.555C113.811 30 113.939 29.808 113.875 29.584ZM116.483 8.144V29.584C116.483 29.808 116.675 30 116.899 30H119.235C119.459 30 119.651 29.808 119.651 29.584V8.144C119.651 7.92 119.459 7.728 119.235 7.728H116.899C116.675 7.728 116.483 7.92 116.483 8.144ZM133.466 7.728H131.162C130.938 7.728 130.746 7.92 130.746 8.144V19.088C130.746 19.408 130.298 19.472 130.17 19.184L126.49 8.272C126.394 7.952 126.074 7.728 125.722 7.728H123.93C123.706 7.728 123.514 7.92 123.514 8.144V29.584C123.514 29.808 123.706 30 123.93 30H126.266C126.49 30 126.682 29.808 126.682 29.584V19.76C126.682 19.472 127.13 19.376 127.226 19.664L131.002 29.424C131.13 29.776 131.418 30 131.77 30H133.498C133.722 30 133.914 29.808 133.914 29.584V8.144C133.914 7.92 133.722 7.728 133.466 7.728ZM146.756 17.968H143.076C142.852 17.968 142.628 18.192 142.628 18.416V20.272C142.628 20.528 142.852 20.752 143.076 20.752H143.972C144.356 20.752 144.676 21.04 144.676 21.456V25.84C144.676 26.608 144.036 27.248 143.236 27.248H142.02C141.252 27.248 140.612 26.608 140.612 25.84V11.888C140.612 11.088 141.252 10.448 142.02 10.448H143.044C143.844 10.448 144.452 11.088 144.452 11.888V13.808C144.452 14.128 144.74 14.384 145.06 14.384H147.044C147.364 14.384 147.652 14.128 147.652 13.808V11.632C147.652 9.456 145.892 7.728 143.748 7.728H141.348C139.204 7.728 137.444 9.456 137.444 11.632V25.968C137.444 28.208 139.236 30 141.476 30H143.812C146.02 30 147.844 28.208 147.844 25.968V19.056C147.844 18.448 147.364 17.968 146.756 17.968Z" fill="#05060A"/>
</svg>
