<svg width="76" height="76" viewBox="0 0 76 76" fill="none" xmlns="http://www.w3.org/2000/svg">
<path opacity="0.22" d="M30.8203 43.7111C40.7637 43.7111 48.8245 35.6503 48.8245 25.7069C48.8245 15.7634 40.7637 7.70263 30.8203 7.70263C20.8768 7.70263 12.816 15.7634 12.816 25.7069C12.816 35.6503 20.8768 43.7111 30.8203 43.7111Z" fill="#FE2C54"/>
<path d="M3.66719 56.6075C3.66719 56.6075 1.85343 46.6452 4.28067 38.8167C4.73411 33.8021 1.31997 29.4811 4.46738 25.7069C7.61479 21.9327 19.0308 16.2647 29.5266 16.3714C32.0339 23.3063 29.5266 25.7069 29.5266 25.7069C29.5266 25.7069 45.0369 37.443 49.5313 42.6176C56.9864 42.3108 71.7366 40.4837 72.2034 54.0202C68.6025 59.6482 39.8624 61.4753 30.5935 58.648C21.3247 55.8207 3.66719 56.6075 3.66719 56.6075Z" stroke="#05060A" stroke-width="2" stroke-linecap="round" stroke-linejoin="round"/>
<path d="M3.66718 56.6075C2.68634 59.6603 2.1255 62.8324 2.00012 66.0364C2.00012 68.3169 3.66718 68.9304 7.77482 68.9304H18.5774L22.0715 63.9826C22.0715 63.9826 36.9817 64.436 36.9817 68.9971C47.4642 68.9971 63.6547 67.9569 70.4296 65.3429C77.2045 62.729 72.2567 54.0869 72.2567 54.0869" stroke="#05060A" stroke-width="2" stroke-linecap="round" stroke-linejoin="round"/>
<path d="M7.77483 68.9304V65.903" stroke="#05060A" stroke-width="2" stroke-linecap="round" stroke-linejoin="round"/>
<path d="M13.9496 68.9304V65.903" stroke="#05060A" stroke-width="2" stroke-linecap="round" stroke-linejoin="round"/>
<path d="M42.263 68.8504V65.903" stroke="#05060A" stroke-width="2" stroke-linecap="round" stroke-linejoin="round"/>
<path d="M48.4644 68.5837V65.903" stroke="#05060A" stroke-width="2" stroke-linecap="round" stroke-linejoin="round"/>
<path d="M54.6659 68.1169V65.903" stroke="#05060A" stroke-width="2" stroke-linecap="round" stroke-linejoin="round"/>
<path d="M60.8674 67.4101V64.7294" stroke="#05060A" stroke-width="2" stroke-linecap="round" stroke-linejoin="round"/>
<path d="M67.0821 66.2765V62.4355" stroke="#05060A" stroke-width="2" stroke-linecap="round" stroke-linejoin="round"/>
<path d="M29.5266 25.7069L23.9386 29.0944" stroke="#05060A" stroke-width="2" stroke-linecap="round" stroke-linejoin="round"/>
<path d="M36.9417 31.4949L30.8203 38.1498" stroke="#05060A" stroke-width="2" stroke-linecap="round" stroke-linejoin="round"/>
<path d="M43.8367 37.1896L40.4492 44.418" stroke="#05060A" stroke-width="2" stroke-linecap="round" stroke-linejoin="round"/>
<path d="M3.0137 48.2055C3.0137 48.2055 15.3366 45.925 15.3366 56.5675" stroke="#05060A" stroke-width="2" stroke-linecap="round" stroke-linejoin="round"/>
</svg>
